# xmcd
#
# Track frame offsets:
#        187
#        17505
#        29772
#        49517
#        65482
#        79057
#        93250
#        114582
#        132712
#        148922
#        173492
#
# Disc length: 2531 seconds
#
# Revision: 0
# Processed by: cddbd v1.5.1PL2 Copyright (c) Steve Scherf et al.
# Submitted via: ExactAudioCopy v0.95a4
#
DISCID=9409e10b
DTITLE=Junkyard - Junkyard
DYEAR=1989
DGENRE=
TTITLE0=Blooze
TTITLE1=Hot Rod
TTITLE2=Simple Man
TTITLE3=Shot In The Dark
TTITLE4=Hollywood
TTITLE5=Life Sentence
TTITLE6=Long Way Home
TTITLE7=Can't Hold Back
TTITLE8=Texas
TTITLE9=Hands Off
TTITLE10=Hallelujah I Love Her So
EXTD=
EXTT0=
EXTT1=
EXTT2=
EXTT3=
EXTT4=
EXTT5=
EXTT6=
EXTT7=
EXTT8=
EXTT9=
EXTT10=
PLAYORDER=
